<?xml version="1.0" encoding="utf-8"?>
<!-- Generator: Adobe Illustrator 18.0.0, SVG Export Plug-In . SVG Version: 6.00 Build 0)  -->
<!DOCTYPE svg PUBLIC "-//W3C//DTD SVG 1.1//EN" "http://www.w3.org/Graphics/SVG/1.1/DTD/svg11.dtd">
<svg version="1.1" id="Layer_1" xmlns="http://www.w3.org/2000/svg" xmlns:xlink="http://www.w3.org/1999/xlink" x="0px" y="0px"
	 viewBox="0 0 188 45" enable-background="new 0 0 188 45" xml:space="preserve">
<g>
	<path d="M40.6,43.3c-3.2-7-6.5-14.2-9.8-21.5c-3.3-7.3-6.7-14.5-9.8-21.5c-0.1-0.2-0.3-0.3-0.6-0.3c-0.2,0-0.5,0.1-0.6,0.3L0,43.3
		c-0.1,0.2,0,0.4,0.1,0.6c0.1,0.1,0.3,0.2,0.5,0.2h5.5c0.2,0,0.4-0.1,0.6-0.4l4.5-10h18.1l0,0.1c0.6,1.4,1.3,2.9,1.9,4.3
		c0.9,1.9,1.8,3.8,2.6,5.7c0.2,0.3,0.4,0.4,0.6,0.4H40c0.2,0,0.4-0.1,0.5-0.2C40.7,43.8,40.7,43.6,40.6,43.3z M13.8,28l6.5-14.7
		l0.1,0.2L26.9,28H13.8z"/>
	<path d="M58.5,17.1c-3.1,0-5.8,1.2-8,3.6l-0.2,0.2V0.5C50.3,0.3,50,0,49.7,0h-4.9c-0.3,0-0.6,0.3-0.6,0.5v43.1
		c0,0.3,0.3,0.6,0.6,0.6h4.9c0.4,0,0.6-0.2,0.6-0.6v-2.3l0.2,0.2c2.2,2.2,5,3.5,7.8,3.5c8.7,0,12.6-7.3,12.6-14.1
		C70.9,24.2,66.6,17.1,58.5,17.1z M57.3,39.6c-4.8,0-7.3-4.3-7.3-8.6c0-4.1,2.6-8.5,7.3-8.5c4.5,0,7.6,3.5,7.6,8.5
		C64.9,35.3,62.6,39.6,57.3,39.6z"/>
	<path d="M80.4,0h-4.9c-0.3,0-0.6,0.3-0.6,0.5v43.1c0,0.3,0.3,0.6,0.6,0.6h4.9c0.3,0,0.6-0.2,0.6-0.6V0.5C80.9,0.3,80.6,0,80.4,0z"
		/>
	<path d="M98,17.1c-7.9,0-12.8,5.4-12.8,14.1c0,8.1,5.3,13.8,12.9,13.8c5.2,0,9.5-2.6,12-7.2l0-0.1c0-0.2-0.1-0.4-0.4-0.6l-4.1-2.3
		c-0.3-0.2-0.5-0.1-0.8,0.1c-1.6,2.6-3.2,4.7-6.7,4.7c-3.9,0-6.6-2.6-6.9-6.4l0-0.1h18.6c0.3,0,0.6-0.2,0.6-0.5v-0.8
		C110.5,25,107.2,17.1,98,17.1z M91.7,28l0-0.1c0.8-2.7,3.2-5.4,6.3-5.4c3.5,0,5.5,2.8,6.3,5.4l0,0.1H91.7z"/>
	<path d="M129.9,17.9h-6V11c0-0.3-0.2-0.5-0.6-0.5h-4.9c-0.3,0-0.6,0.2-0.6,0.5v2.9c0,1.3,0,4-3.6,4h-1c-0.3,0-0.6,0.3-0.6,0.5V23
		c0,0.4,0.5,0.5,0.6,0.5h4.6v11.1c0,7.1,2.7,10.5,8.4,10.5c1.7,0,3-0.2,3.9-0.6l0,0c0.2,0,0.4-0.3,0.4-0.5v-4.8
		c0-0.3-0.3-0.5-0.6-0.5c-0.1,0-0.3,0.1-0.4,0.1c-0.7,0.3-1.4,0.6-2.4,0.6c-0.2,0-0.5,0-0.7,0c-2.5-0.6-2.5-3.8-2.5-6v-9.8h6
		c0.1,0,0.6,0,0.6-0.5v-4.6C130.5,18.2,130.3,17.9,129.9,17.9z"/>
	<path d="M147.1,17.1c-7.9,0-14.1,6.1-14.1,13.9c0,7.8,6.2,13.9,14.1,13.9c7.9,0,14.1-6.1,14.1-13.9C161.2,23.2,155,17.1,147.1,17.1
		z M147.1,39.3c-4.4,0-8-3.7-8-8.2c0-4.5,3.6-8.2,8-8.2c4.4,0,8.1,3.7,8.1,8.2C155.2,35.6,151.6,39.3,147.1,39.3z"/>
	<path d="M178,17.1c-2.6,0-5.2,1-6.8,2.7L171,20l-0.1-1.6c0-0.2-0.3-0.5-0.6-0.5h-4.9c-0.3,0-0.6,0.3-0.6,0.5v25.2
		c0,0.3,0.3,0.6,0.6,0.6h4.9c0.4,0,0.6-0.2,0.6-0.6V32.1c0-4.2,0-9.5,5.6-9.5c4.6,0,5,3,5,6.7v14.4c0,0.3,0.3,0.6,0.6,0.6h4.9
		c0.3,0,0.6-0.2,0.6-0.6v-15C187.5,20.6,184.6,17.1,178,17.1z"/>
</g>
</svg>
